<svg height="512" viewBox="0 0 64 64" width="512" xmlns="http://www.w3.org/2000/svg"><g id="incorrect"><rect fill="#ffdaaa" height="58" rx="2" width="40" x="12" y="3"/><path d="m52 5v54a2.006 2.006 0 0 1 -2 2h-2a2.006 2.006 0 0 0 2-2v-54a2.006 2.006 0 0 0 -2-2h2a2.006 2.006 0 0 1 2 2z" fill="#ffc477"/><path d="m26 11v8l-5-4-5 4v-16h10z" fill="#ff7956"/><path d="m26 3v16l-2-1.6v-14.4z" fill="#ff6243"/><path d="m61 19v36a2.006 2.006 0 0 1 -2 2h-7v-40h7a2.006 2.006 0 0 1 2 2z" fill="#ffdaaa"/><path d="m52 33h5v8h-5z" fill="#57a4ff"/><path d="m52 21h5v6h-5z" fill="#57a4ff"/><circle cx="32" cy="38" fill="#ffeb99" r="15"/><path d="m47 38a15.005 15.005 0 0 1 -15 15c-.34 0-.67-.01-1-.04a14.993 14.993 0 0 0 0-29.92c.33-.03.66-.04 1-.04a15.005 15.005 0 0 1 15 15z" fill="#ffcd00"/><path d="m37.61 30.84a6.042 6.042 0 0 1 -2.53 7.31 2.094 2.094 0 0 0 -1.08 1.77v.08a2 2 0 0 1 -4 0v-.08a6.054 6.054 0 0 1 3.02-5.2 2.022 2.022 0 0 0 .94-2.16 1.961 1.961 0 0 0 -1.42-1.49 1.995 1.995 0 0 0 -2.54 1.93h-4a5.943 5.943 0 0 1 2.26-4.69 6.063 6.063 0 0 1 5.66-1.01 5.869 5.869 0 0 1 3.69 3.54z" fill="#ff7956"/><circle cx="32" cy="47" fill="#ff7956" r="2"/><path d="m12 17v40h-7a2.006 2.006 0 0 1 -2-2v-36a2.006 2.006 0 0 1 2-2z" fill="#ffdaaa"/><path d="m7 33h5v8h-5z" fill="#57a4ff"/><path d="m12 17v9l-2-2-3 3v-10z" fill="#ff7956"/><path d="m15 56h34v2h-34z"/><path d="m26 34h4a1 1 0 0 0 1-1 1 1 0 0 1 .376-.782 1.016 1.016 0 0 1 .921-.18.958.958 0 0 1 .678.723 1.016 1.016 0 0 1 -.463 1.1 7.073 7.073 0 0 0 -3.512 6.139 3 3 0 1 0 6-.077 1.105 1.105 0 0 1 .592-.914 7.074 7.074 0 0 0 2.961-8.509 6.865 6.865 0 0 0 -4.335-4.148 7.075 7.075 0 0 0 -6.58 1.178 6.962 6.962 0 0 0 -2.638 5.47 1 1 0 0 0 1 1zm2.885-4.911a5.087 5.087 0 0 1 4.727-.835 4.854 4.854 0 0 1 3.064 2.931 5.072 5.072 0 0 1 -2.112 6.108 3.11 3.11 0 0 0 -1.564 2.707 1 1 0 0 1 -1 1 1.02 1.02 0 0 1 -1-1.077 5.058 5.058 0 0 1 2.538-4.346 3.005 3.005 0 0 0 1.4-3.212 2.942 2.942 0 0 0 -2.157-2.265 3.206 3.206 0 0 0 -.789-.1 3.008 3.008 0 0 0 -2.822 2h-2.07a4.973 4.973 0 0 1 1.785-2.911z"/><path d="m32 44a3 3 0 1 0 3 3 3 3 0 0 0 -3-3zm0 4a1 1 0 1 1 1-1 1 1 0 0 1 -1 1z"/><path d="m47 6h2v2h-2z"/><path d="m37 6h8v2h-8z"/><path d="m41 10h8v2h-8z"/><path d="m29 6h6v2h-6z"/><path d="m29 10h10v2h-10z"/><path d="m59 16h-6v-11a3 3 0 0 0 -3-3h-36a3 3 0 0 0 -3 3v11h-6a3 3 0 0 0 -3 3v36a3 3 0 0 0 3 3h6v1a3 3 0 0 0 3 3h36a3 3 0 0 0 3-3v-1h6a3 3 0 0 0 3-3v-36a3 3 0 0 0 -3-3zm-6 6h3v4h-3zm0 12h3v6h-3zm-36-30h8v12.919l-3.375-2.7a1 1 0 0 0 -1.25 0l-3.375 2.7zm-6 19.586-.293-.293a1 1 0 0 0 -1.414 0l-1.293 1.293v-6.586h3zm-6 32.414a1 1 0 0 1 -1-1v-36a1 1 0 0 1 1-1h1v9a1 1 0 0 0 1.707.707l2.293-2.293 1 1v5.586h-4a1 1 0 0 0 -1 1v8a1 1 0 0 0 1 1h4v2h-5v2h5v2h-5v2h5v2h-5v2h5v2zm6-22v6h-3v-6zm40 25a1 1 0 0 1 -1 1h-36a1 1 0 0 1 -1-1v-54a1 1 0 0 1 1-1h1v15a1 1 0 0 0 1.625.781l4.375-3.5 4.375 3.5a1 1 0 0 0 1.625-.781v-15h23a1 1 0 0 1 1 1zm9-4a1 1 0 0 1 -1 1h-6v-2h5v-2h-5v-2h5v-2h-5v-2h5v-2h-5v-2h4a1 1 0 0 0 1-1v-8a1 1 0 0 0 -1-1h-4v-4h4a1 1 0 0 0 1-1v-6a1 1 0 0 0 -1-1h-4v-2h6a1 1 0 0 1 1 1z"/><path d="m47 18h2v2h-2z"/><path d="m37 18h8v2h-8z"/><path d="m41 14h8v2h-8z"/><path d="m29 18h6v2h-6z"/><path d="m29 14h10v2h-10z"/><path d="m32 54a16 16 0 1 0 -16-16 16.019 16.019 0 0 0 16 16zm0-30a14 14 0 1 1 -14 14 14.015 14.015 0 0 1 14-14z"/></g></svg>